<svg xmlns="http://www.w3.org/2000/svg" width="27" height="34" viewBox="0 0 27 34">
    <path fill-rule="evenodd" clip-rule="evenodd" d="M0 25.0026C0 24.6411 0.143538 24.294 0.399459 24.0381L18.0347 6.40668C18.2906 6.15081 18.6377 6.0073 18.9994 6.0073H25.5632C26.3165 6.0073 26.9274 6.61805 26.9274 7.37119V32.01C26.9274 32.7632 26.3165 33.3739 25.5632 33.3739H17.1645C16.4112 33.3739 15.8003 32.7632 15.8003 32.01V27.6314C15.8003 26.4166 14.3316 25.808 13.4715 26.6669L11.5265 28.6115C11.2705 28.8673 11.127 29.2144 11.127 29.576V32.0089C11.127 32.7621 10.5161 33.3728 9.76283 33.3728H1.36417C0.610873 33.3728 0 32.7621 0 32.0089V25.0015V25.0026ZM10.7275 11.821C10.9835 11.5652 11.127 11.2181 11.127 10.8565V1.36388C11.127 0.610743 10.5161 0 9.76283 0H1.36417C0.610873 0 0 0.610743 0 1.36388V19.2545C0 20.4693 1.46876 21.0779 2.32888 20.219L10.7275 11.8222V11.821Z" fill="black"/>
</svg>